<mxfile host="65bd71144e">
    <diagram name="Page-1" id="wMcJXPJrbRFAe2mAiJM7">
        <mxGraphModel dx="1621" dy="1103" grid="1" gridSize="10" guides="1" tooltips="1" connect="1" arrows="1" fold="1" page="1" pageScale="1" pageWidth="850" pageHeight="1100" math="0" shadow="0">
            <root>
                <mxCell id="0"/>
                <mxCell id="1" parent="0"/>
                <mxCell id="163" value="Actor" style="shape=umlActor;verticalLabelPosition=bottom;verticalAlign=top;html=1;outlineConnect=0;rotation=60;" vertex="1" parent="1">
                    <mxGeometry x="380" y="450" width="30" height="60" as="geometry"/>
                </mxCell>
                <mxCell id="147" style="edgeStyle=none;html=1;startArrow=none;startFill=0;endArrow=classicThin;endFill=1;startSize=15;endSize=15;sourcePerimeterSpacing=0;entryX=0.5;entryY=0;entryDx=0;entryDy=0;fillColor=#76608a;strokeColor=#432D57;strokeWidth=3;" edge="1" parent="1" source="35" target="51">
                    <mxGeometry relative="1" as="geometry">
                        <mxPoint x="680" y="70" as="targetPoint"/>
                        <Array as="points">
                            <mxPoint x="60" y="30"/>
                            <mxPoint x="680" y="30"/>
                        </Array>
                    </mxGeometry>
                </mxCell>
                <mxCell id="145" style="edgeStyle=none;html=1;entryX=0;entryY=0.141;entryDx=0;entryDy=0;entryPerimeter=0;startArrow=none;startFill=0;endArrow=classicThin;endFill=1;startSize=15;endSize=15;sourcePerimeterSpacing=0;fillColor=#76608a;strokeColor=#432D57;strokeWidth=3;" edge="1" parent="1" source="35" target="40">
                    <mxGeometry relative="1" as="geometry">
                        <Array as="points">
                            <mxPoint x="290" y="210"/>
                        </Array>
                    </mxGeometry>
                </mxCell>
                <mxCell id="65" value="" style="shape=umlActor;verticalLabelPosition=bottom;verticalAlign=top;html=1;outlineConnect=0;rotation=-60;" vertex="1" parent="1">
                    <mxGeometry x="370" y="45" width="20" height="30" as="geometry"/>
                </mxCell>
                <mxCell id="63" value="" style="rounded=1;whiteSpace=wrap;html=1;" vertex="1" parent="1">
                    <mxGeometry x="380" y="15" width="120" height="60" as="geometry"/>
                </mxCell>
                <mxCell id="39" value="Actor" style="shape=umlActor;verticalLabelPosition=bottom;verticalAlign=top;html=1;outlineConnect=0;rotation=20;" vertex="1" parent="1">
                    <mxGeometry x="70" y="280" width="30" height="60" as="geometry"/>
                </mxCell>
                <mxCell id="131" style="edgeStyle=none;html=1;startArrow=baseDash;startFill=0;endArrow=ERmany;endFill=0;startSize=15;endSize=15;sourcePerimeterSpacing=10;entryX=-0.012;entryY=0.092;entryDx=0;entryDy=0;entryPerimeter=0;fillColor=#1ba1e2;strokeColor=#006EAF;strokeWidth=2;" edge="1" parent="1" target="40">
                    <mxGeometry relative="1" as="geometry">
                        <mxPoint x="290" y="100" as="sourcePoint"/>
                    </mxGeometry>
                </mxCell>
                <mxCell id="26" value="Dimesions" style="swimlane;fontStyle=0;childLayout=stackLayout;horizontal=1;startSize=30;horizontalStack=0;resizeParent=1;resizeParentMax=0;resizeLast=0;collapsible=1;marginBottom=0;whiteSpace=wrap;html=1;fillColor=#1ba1e2;fontColor=#ffffff;strokeColor=#006EAF;" vertex="1" parent="1">
                    <mxGeometry x="120" y="80" width="160" height="120" as="geometry"/>
                </mxCell>
                <mxCell id="107" value="dimesionXImage: `String`" style="text;strokeColor=#314354;fillColor=#3C5573;align=left;verticalAlign=middle;spacingLeft=4;spacingRight=4;overflow=hidden;points=[[0,0.5],[1,0.5]];portConstraint=eastwest;rotatable=0;whiteSpace=wrap;html=1;fontColor=#ffffff;" vertex="1" parent="26">
                    <mxGeometry y="30" width="160" height="30" as="geometry"/>
                </mxCell>
                <mxCell id="27" value="dimesionXName: `String`" style="text;strokeColor=#314354;fillColor=#3C5573;align=left;verticalAlign=middle;spacingLeft=4;spacingRight=4;overflow=hidden;points=[[0,0.5],[1,0.5]];portConstraint=eastwest;rotatable=0;whiteSpace=wrap;html=1;fontColor=#ffffff;" vertex="1" parent="26">
                    <mxGeometry y="60" width="160" height="30" as="geometry"/>
                </mxCell>
                <mxCell id="28" value="dimesionXBiomes: [Object._ID]" style="text;strokeColor=#314354;fillColor=#647687;align=left;verticalAlign=middle;spacingLeft=4;spacingRight=4;overflow=hidden;points=[[0,0.5],[1,0.5]];portConstraint=eastwest;rotatable=0;whiteSpace=wrap;html=1;fontColor=#ffffff;" vertex="1" parent="26">
                    <mxGeometry y="90" width="160" height="30" as="geometry"/>
                </mxCell>
                <mxCell id="34" value="" style="rounded=1;whiteSpace=wrap;html=1;" vertex="1" parent="1">
                    <mxGeometry x="20" y="320" width="80" height="60" as="geometry"/>
                </mxCell>
                <mxCell id="140" style="edgeStyle=none;html=1;startArrow=none;startFill=0;endArrow=classicThin;endFill=1;startSize=15;endSize=15;sourcePerimeterSpacing=0;entryX=0;entryY=0.1;entryDx=0;entryDy=0;entryPerimeter=0;fillColor=#76608a;strokeColor=#432D57;strokeWidth=3;" edge="1" parent="1" source="35" target="26">
                    <mxGeometry relative="1" as="geometry">
                        <mxPoint x="180" y="210" as="targetPoint"/>
                        <Array as="points">
                            <mxPoint x="60" y="90"/>
                        </Array>
                    </mxGeometry>
                </mxCell>
                <mxCell id="142" style="edgeStyle=none;html=1;entryX=0;entryY=0.042;entryDx=0;entryDy=0;startArrow=none;startFill=0;endArrow=classicThin;endFill=1;startSize=15;endSize=15;sourcePerimeterSpacing=0;entryPerimeter=0;fillColor=#76608a;strokeColor=#432D57;strokeWidth=3;exitX=1.02;exitY=0.566;exitDx=0;exitDy=0;exitPerimeter=0;" edge="1" parent="1" source="35" target="81">
                    <mxGeometry relative="1" as="geometry"/>
                </mxCell>
                <mxCell id="143" style="edgeStyle=none;html=1;entryX=-0.038;entryY=0.017;entryDx=0;entryDy=0;entryPerimeter=0;startArrow=none;startFill=0;endArrow=classicThin;endFill=1;startSize=15;endSize=5;sourcePerimeterSpacing=0;fillColor=#76608a;strokeColor=#432D57;strokeWidth=2;" edge="1" parent="1" source="35" target="93">
                    <mxGeometry relative="1" as="geometry">
                        <Array as="points">
                            <mxPoint x="490" y="410"/>
                            <mxPoint x="510" y="810"/>
                            <mxPoint x="660" y="810"/>
                            <mxPoint x="670" y="360"/>
                        </Array>
                    </mxGeometry>
                </mxCell>
                <mxCell id="35" value="Here users can add more if they'd like" style="text;html=1;strokeColor=#432D57;fillColor=#76608a;align=center;verticalAlign=middle;whiteSpace=wrap;rounded=0;fontColor=#ffffff;" vertex="1" parent="1">
                    <mxGeometry x="20" y="320" width="80" height="60" as="geometry"/>
                </mxCell>
                <mxCell id="134" style="edgeStyle=none;html=1;entryX=0;entryY=0.111;entryDx=0;entryDy=0;entryPerimeter=0;startArrow=ERmany;startFill=0;endArrow=ERmany;endFill=0;startSize=15;endSize=15;sourcePerimeterSpacing=0;fillColor=#1ba1e2;strokeColor=#006EAF;strokeWidth=2;" edge="1" parent="1" target="51">
                    <mxGeometry relative="1" as="geometry">
                        <mxPoint x="520" y="100" as="sourcePoint"/>
                    </mxGeometry>
                </mxCell>
                <mxCell id="40" value="Biomes" style="swimlane;fontStyle=0;childLayout=stackLayout;horizontal=1;startSize=30;horizontalStack=0;resizeParent=1;resizeParentMax=0;resizeLast=0;collapsible=1;marginBottom=0;whiteSpace=wrap;html=1;fillColor=#1ba1e2;fontColor=#ffffff;strokeColor=#006EAF;" vertex="1" parent="1">
                    <mxGeometry x="360" y="80" width="160" height="220" as="geometry"/>
                </mxCell>
                <mxCell id="85" value="dimesionBiomeBelongs: [Object._ID] &amp;lt;- Will be a `String` though." style="text;strokeColor=#314354;fillColor=#647687;align=left;verticalAlign=middle;spacingLeft=4;spacingRight=4;overflow=hidden;points=[[0,0.5],[1,0.5]];portConstraint=eastwest;rotatable=0;whiteSpace=wrap;html=1;fontColor=#ffffff;" vertex="1" parent="40">
                    <mxGeometry y="30" width="160" height="50" as="geometry"/>
                </mxCell>
                <mxCell id="42" value="biomeXMobs: [Object._ID] &amp;lt;- As a String" style="text;strokeColor=#314354;fillColor=#647687;align=left;verticalAlign=middle;spacingLeft=4;spacingRight=4;overflow=hidden;points=[[0,0.5],[1,0.5]];portConstraint=eastwest;rotatable=0;whiteSpace=wrap;html=1;fontColor=#ffffff;" vertex="1" parent="40">
                    <mxGeometry y="80" width="160" height="30" as="geometry"/>
                </mxCell>
                <mxCell id="41" value="biomeXName: `String`" style="text;strokeColor=#314354;fillColor=#3C5573;align=left;verticalAlign=middle;spacingLeft=4;spacingRight=4;overflow=hidden;points=[[0,0.5],[1,0.5]];portConstraint=eastwest;rotatable=0;whiteSpace=wrap;html=1;fontColor=#ffffff;" vertex="1" parent="40">
                    <mxGeometry y="110" width="160" height="30" as="geometry"/>
                </mxCell>
                <mxCell id="106" value="biomeXImage: `String`" style="text;strokeColor=#314354;fillColor=#3C5573;align=left;verticalAlign=middle;spacingLeft=4;spacingRight=4;overflow=hidden;points=[[0,0.5],[1,0.5]];portConstraint=eastwest;rotatable=0;whiteSpace=wrap;html=1;fontColor=#ffffff;" vertex="1" parent="40">
                    <mxGeometry y="140" width="160" height="30" as="geometry"/>
                </mxCell>
                <mxCell id="69" value="biomeXStructureNames: [Embedded Array List of `String`]" style="text;strokeColor=#314354;fillColor=#6A97CC;align=left;verticalAlign=middle;spacingLeft=4;spacingRight=4;overflow=hidden;points=[[0,0.5],[1,0.5]];portConstraint=eastwest;rotatable=0;whiteSpace=wrap;html=1;fontColor=#ffffff;" vertex="1" parent="40">
                    <mxGeometry y="170" width="160" height="50" as="geometry"/>
                </mxCell>
                <mxCell id="48" style="edgeStyle=none;html=1;startArrow=baseDash;startFill=0;endArrow=ERmany;endFill=0;startSize=15;endSize=15;sourcePerimeterSpacing=10;" edge="1" parent="1">
                    <mxGeometry relative="1" as="geometry">
                        <mxPoint x="290" y="185" as="targetPoint"/>
                        <mxPoint x="290" y="185" as="sourcePoint"/>
                    </mxGeometry>
                </mxCell>
                <mxCell id="51" value="Mobs" style="swimlane;fontStyle=0;childLayout=stackLayout;horizontal=1;startSize=30;horizontalStack=0;resizeParent=1;resizeParentMax=0;resizeLast=0;collapsible=1;marginBottom=0;whiteSpace=wrap;html=1;fillColor=#1ba1e2;fontColor=#ffffff;strokeColor=#006EAF;" vertex="1" parent="1">
                    <mxGeometry x="600" y="80" width="160" height="220" as="geometry"/>
                </mxCell>
                <mxCell id="52" value="mobXName: `String`" style="text;strokeColor=#314354;fillColor=#3C5573;align=left;verticalAlign=middle;spacingLeft=4;spacingRight=4;overflow=hidden;points=[[0,0.5],[1,0.5]];portConstraint=eastwest;rotatable=0;whiteSpace=wrap;html=1;fontColor=#ffffff;" vertex="1" parent="51">
                    <mxGeometry y="30" width="160" height="30" as="geometry"/>
                </mxCell>
                <mxCell id="167" value="biomeMobXBelongs: [Object._ID] &amp;lt;- As a String" style="text;fillColor=#647687;align=left;verticalAlign=middle;spacingLeft=4;spacingRight=4;overflow=hidden;points=[[0,0.5],[1,0.5]];portConstraint=eastwest;rotatable=0;whiteSpace=wrap;html=1;fontColor=#ffffff;strokeColor=#314354;" vertex="1" parent="51">
                    <mxGeometry y="60" width="160" height="40" as="geometry"/>
                </mxCell>
                <mxCell id="67" value="isMobXHostile: Boolean" style="text;strokeColor=#3700CC;fillColor=#B266FF;align=left;verticalAlign=middle;spacingLeft=4;spacingRight=4;overflow=hidden;points=[[0,0.5],[1,0.5]];portConstraint=eastwest;rotatable=0;whiteSpace=wrap;html=1;fontColor=#ffffff;" vertex="1" parent="51">
                    <mxGeometry y="100" width="160" height="30" as="geometry"/>
                </mxCell>
                <mxCell id="68" value="howMuchHp: Number" style="text;strokeColor=#3A5431;fillColor=#6d8764;align=left;verticalAlign=middle;spacingLeft=4;spacingRight=4;overflow=hidden;points=[[0,0.5],[1,0.5]];portConstraint=eastwest;rotatable=0;whiteSpace=wrap;html=1;fontColor=#ffffff;" vertex="1" parent="51">
                    <mxGeometry y="130" width="160" height="30" as="geometry"/>
                </mxCell>
                <mxCell id="83" value="passiveMobs: [Embedded Objects]" style="text;strokeColor=#A50040;fillColor=#6A97CC;align=left;verticalAlign=middle;spacingLeft=4;spacingRight=4;overflow=hidden;points=[[0,0.5],[1,0.5]];portConstraint=eastwest;rotatable=0;whiteSpace=wrap;html=1;fontColor=#ffffff;" vertex="1" parent="51">
                    <mxGeometry y="160" width="160" height="30" as="geometry"/>
                </mxCell>
                <mxCell id="84" value="hostileMobs: [Embedded Objects]" style="text;strokeColor=#A50040;fillColor=#6A97CC;align=left;verticalAlign=middle;spacingLeft=4;spacingRight=4;overflow=hidden;points=[[0,0.5],[1,0.5]];portConstraint=eastwest;rotatable=0;whiteSpace=wrap;html=1;fontColor=#ffffff;" vertex="1" parent="51">
                    <mxGeometry y="190" width="160" height="30" as="geometry"/>
                </mxCell>
                <mxCell id="61" value="X = to the next incremented number so it's easier to understand" style="text;html=1;strokeColor=#001DBC;fillColor=#0050ef;align=center;verticalAlign=middle;whiteSpace=wrap;rounded=0;fontColor=#ffffff;" vertex="1" parent="1">
                    <mxGeometry x="380" y="10" width="120" height="70" as="geometry"/>
                </mxCell>
                <mxCell id="135" style="edgeStyle=none;html=1;startArrow=ERmany;startFill=0;endArrow=baseDash;endFill=0;startSize=15;endSize=15;sourcePerimeterSpacing=0;fillColor=#e3c800;strokeColor=#B09500;rounded=1;jumpSize=15;strokeWidth=2;entryX=0;entryY=0.667;entryDx=0;entryDy=0;entryPerimeter=0;" edge="1" parent="1" target="83">
                    <mxGeometry relative="1" as="geometry">
                        <mxPoint x="580" y="230" as="targetPoint"/>
                        <mxPoint x="530" y="350" as="sourcePoint"/>
                        <Array as="points">
                            <mxPoint x="530" y="260"/>
                        </Array>
                    </mxGeometry>
                </mxCell>
                <mxCell id="81" value="Embedded Passive Mobs" style="swimlane;fontStyle=0;childLayout=stackLayout;horizontal=1;startSize=30;horizontalStack=0;resizeParent=1;resizeParentMax=0;resizeLast=0;collapsible=1;marginBottom=0;whiteSpace=wrap;html=1;fillColor=#e3c800;fontColor=#000000;strokeColor=#B09500;" vertex="1" parent="1">
                    <mxGeometry x="520" y="350" width="130" height="440" as="geometry"/>
                </mxCell>
                <mxCell id="112" value="mobXSpawnerImage:&lt;br&gt;`String`" style="text;fillColor=#3C5573;align=left;verticalAlign=middle;spacingLeft=4;spacingRight=4;overflow=hidden;points=[[0,0.5],[1,0.5]];portConstraint=eastwest;rotatable=0;whiteSpace=wrap;html=1;fontColor=#ffffff;strokeColor=#432D57;" vertex="1" parent="81">
                    <mxGeometry y="30" width="130" height="40" as="geometry"/>
                </mxCell>
                <mxCell id="104" value="mobXImage: `String`" style="text;strokeColor=#432D57;fillColor=#3C5573;align=left;verticalAlign=middle;spacingLeft=4;spacingRight=4;overflow=hidden;points=[[0,0.5],[1,0.5]];portConstraint=eastwest;rotatable=0;whiteSpace=wrap;html=1;fontColor=#ffffff;" vertex="1" parent="81">
                    <mxGeometry y="70" width="130" height="30" as="geometry"/>
                </mxCell>
                <mxCell id="82" value="mobXLootTable: [Embedded Array List of `String`]" style="text;strokeColor=#A50040;fillColor=#6A97CC;align=left;verticalAlign=middle;spacingLeft=4;spacingRight=4;overflow=hidden;points=[[0,0.5],[1,0.5]];portConstraint=eastwest;rotatable=0;whiteSpace=wrap;html=1;fontColor=#ffffff;" vertex="1" parent="81">
                    <mxGeometry y="100" width="130" height="50" as="geometry"/>
                </mxCell>
                <mxCell id="86" value="isMobXTameable: Boolean" style="text;strokeColor=#A50040;fillColor=#B266FF;align=left;verticalAlign=middle;spacingLeft=4;spacingRight=4;overflow=hidden;points=[[0,0.5],[1,0.5]];portConstraint=eastwest;rotatable=0;whiteSpace=wrap;html=1;fontColor=#ffffff;" vertex="1" parent="81">
                    <mxGeometry y="150" width="130" height="30" as="geometry"/>
                </mxCell>
                <mxCell id="87" value="isMobXOnWater:&lt;br&gt;Boolean" style="text;strokeColor=#3700CC;fillColor=#B266FF;align=left;verticalAlign=middle;spacingLeft=4;spacingRight=4;overflow=hidden;points=[[0,0.5],[1,0.5]];portConstraint=eastwest;rotatable=0;whiteSpace=wrap;html=1;fontColor=#ffffff;" vertex="1" parent="81">
                    <mxGeometry y="180" width="130" height="30" as="geometry"/>
                </mxCell>
                <mxCell id="88" value="isMobXOnLand: Boolean" style="text;strokeColor=#6F0000;fillColor=#B266FF;align=left;verticalAlign=middle;spacingLeft=4;spacingRight=4;overflow=hidden;points=[[0,0.5],[1,0.5]];portConstraint=eastwest;rotatable=0;whiteSpace=wrap;html=1;fontColor=#ffffff;" vertex="1" parent="81">
                    <mxGeometry y="210" width="130" height="30" as="geometry"/>
                </mxCell>
                <mxCell id="101" value="mobXStatusEffects:&lt;br&gt;`String`" style="text;strokeColor=#432D57;fillColor=#3C5573;align=left;verticalAlign=middle;spacingLeft=4;spacingRight=4;overflow=hidden;points=[[0,0.5],[1,0.5]];portConstraint=eastwest;rotatable=0;whiteSpace=wrap;html=1;fontColor=#ffffff;" vertex="1" parent="81">
                    <mxGeometry y="240" width="130" height="30" as="geometry"/>
                </mxCell>
                <mxCell id="102" value="mobXSpawnings: [Object._ID] &amp;lt;-- This here would be the Structures and Biomes ID | `String &amp;amp; String`" style="text;strokeColor=#314354;fillColor=#647687;align=left;verticalAlign=middle;spacingLeft=4;spacingRight=4;overflow=hidden;points=[[0,0.5],[1,0.5]];portConstraint=eastwest;rotatable=0;whiteSpace=wrap;html=1;fontColor=#ffffff;" vertex="1" parent="81">
                    <mxGeometry y="270" width="130" height="90" as="geometry"/>
                </mxCell>
                <mxCell id="111" value="mobXWeapon: `String`" style="text;strokeColor=#432D57;fillColor=#3C5573;align=left;verticalAlign=middle;spacingLeft=4;spacingRight=4;overflow=hidden;points=[[0,0.5],[1,0.5]];portConstraint=eastwest;rotatable=0;whiteSpace=wrap;html=1;fontColor=#ffffff;" vertex="1" parent="81">
                    <mxGeometry y="360" width="130" height="40" as="geometry"/>
                </mxCell>
                <mxCell id="110" value="mobXHasWeapons:&lt;br&gt;Boolean" style="text;strokeColor=#A50040;fillColor=#B266FF;align=left;verticalAlign=middle;spacingLeft=4;spacingRight=4;overflow=hidden;points=[[0,0.5],[1,0.5]];portConstraint=eastwest;rotatable=0;whiteSpace=wrap;html=1;fontColor=#ffffff;" vertex="1" parent="81">
                    <mxGeometry y="400" width="130" height="40" as="geometry"/>
                </mxCell>
                <mxCell id="139" style="edgeStyle=none;html=1;startArrow=ERmany;startFill=0;endArrow=baseDash;endFill=0;startSize=15;endSize=15;sourcePerimeterSpacing=0;exitX=0.154;exitY=0;exitDx=0;exitDy=0;exitPerimeter=0;fillColor=#e3c800;strokeColor=#B09500;strokeWidth=2;" edge="1" parent="1" source="93">
                    <mxGeometry relative="1" as="geometry">
                        <mxPoint x="710" y="300" as="targetPoint"/>
                    </mxGeometry>
                </mxCell>
                <mxCell id="93" value="Embedded Passive Mobs" style="swimlane;fontStyle=0;childLayout=stackLayout;horizontal=1;startSize=30;horizontalStack=0;resizeParent=1;resizeParentMax=0;resizeLast=0;collapsible=1;marginBottom=0;whiteSpace=wrap;html=1;fillColor=#e3c800;fontColor=#000000;strokeColor=#B09500;" vertex="1" parent="1">
                    <mxGeometry x="690" y="350" width="130" height="480" as="geometry"/>
                </mxCell>
                <mxCell id="113" value="movXSpawnerImage:&lt;br&gt;`String`" style="text;strokeColor=#314354;fillColor=#3C5573;align=left;verticalAlign=middle;spacingLeft=4;spacingRight=4;overflow=hidden;points=[[0,0.5],[1,0.5]];portConstraint=eastwest;rotatable=0;whiteSpace=wrap;html=1;fontColor=#ffffff;" vertex="1" parent="93">
                    <mxGeometry y="30" width="130" height="40" as="geometry"/>
                </mxCell>
                <mxCell id="105" value="mobXImage: `String`" style="text;strokeColor=#314354;fillColor=#3C5573;align=left;verticalAlign=middle;spacingLeft=4;spacingRight=4;overflow=hidden;points=[[0,0.5],[1,0.5]];portConstraint=eastwest;rotatable=0;whiteSpace=wrap;html=1;fontColor=#ffffff;" vertex="1" parent="93">
                    <mxGeometry y="70" width="130" height="30" as="geometry"/>
                </mxCell>
                <mxCell id="95" value="mobXLootTable: [Embedded Array List of `String`]" style="text;strokeColor=#A50040;fillColor=#6A97CC;align=left;verticalAlign=middle;spacingLeft=4;spacingRight=4;overflow=hidden;points=[[0,0.5],[1,0.5]];portConstraint=eastwest;rotatable=0;whiteSpace=wrap;html=1;fontColor=#ffffff;" vertex="1" parent="93">
                    <mxGeometry y="100" width="130" height="50" as="geometry"/>
                </mxCell>
                <mxCell id="96" value="mobXDamage: Number" style="text;strokeColor=#3A5431;fillColor=#6d8764;align=left;verticalAlign=middle;spacingLeft=4;spacingRight=4;overflow=hidden;points=[[0,0.5],[1,0.5]];portConstraint=eastwest;rotatable=0;whiteSpace=wrap;html=1;fontColor=#ffffff;" vertex="1" parent="93">
                    <mxGeometry y="150" width="130" height="30" as="geometry"/>
                </mxCell>
                <mxCell id="97" value="isMobXOnWater: Boolean" style="text;strokeColor=#3700CC;fillColor=#B266FF;align=left;verticalAlign=middle;spacingLeft=4;spacingRight=4;overflow=hidden;points=[[0,0.5],[1,0.5]];portConstraint=eastwest;rotatable=0;whiteSpace=wrap;html=1;fontColor=#ffffff;" vertex="1" parent="93">
                    <mxGeometry y="180" width="130" height="30" as="geometry"/>
                </mxCell>
                <mxCell id="98" value="isMobXOnLand:&lt;br&gt;Boolean" style="text;strokeColor=#3700CC;fillColor=#B266FF;align=left;verticalAlign=middle;spacingLeft=4;spacingRight=4;overflow=hidden;points=[[0,0.5],[1,0.5]];portConstraint=eastwest;rotatable=0;whiteSpace=wrap;html=1;fontColor=#ffffff;" vertex="1" parent="93">
                    <mxGeometry y="210" width="130" height="30" as="geometry"/>
                </mxCell>
                <mxCell id="99" value="mobXStatusEffects:&lt;br&gt;`String`" style="text;strokeColor=#314354;fillColor=#3C5573;align=left;verticalAlign=middle;spacingLeft=4;spacingRight=4;overflow=hidden;points=[[0,0.5],[1,0.5]];portConstraint=eastwest;rotatable=0;whiteSpace=wrap;html=1;fontColor=#ffffff;" vertex="1" parent="93">
                    <mxGeometry y="240" width="130" height="30" as="geometry"/>
                </mxCell>
                <mxCell id="100" value="mobXSpawnings: [Object._ID] &amp;lt;- This here would be the Structures and biomes ID | `String &amp;amp; String`" style="text;strokeColor=#314354;fillColor=#647687;align=left;verticalAlign=middle;spacingLeft=4;spacingRight=4;overflow=hidden;points=[[0,0.5],[1,0.5]];portConstraint=eastwest;rotatable=0;whiteSpace=wrap;html=1;fontColor=#ffffff;" vertex="1" parent="93">
                    <mxGeometry y="270" width="130" height="90" as="geometry"/>
                </mxCell>
                <mxCell id="108" value="mobXWeapon: `String`" style="text;strokeColor=#314354;fillColor=#3C5573;align=left;verticalAlign=middle;spacingLeft=4;spacingRight=4;overflow=hidden;points=[[0,0.5],[1,0.5]];portConstraint=eastwest;rotatable=0;whiteSpace=wrap;html=1;fontColor=#ffffff;" vertex="1" parent="93">
                    <mxGeometry y="360" width="130" height="40" as="geometry"/>
                </mxCell>
                <mxCell id="109" value="mobXHasWeapons:&lt;br&gt;Boolean" style="text;strokeColor=#3700CC;fillColor=#B266FF;align=left;verticalAlign=middle;spacingLeft=4;spacingRight=4;overflow=hidden;points=[[0,0.5],[1,0.5]];portConstraint=eastwest;rotatable=0;whiteSpace=wrap;html=1;fontColor=#ffffff;" vertex="1" parent="93">
                    <mxGeometry y="400" width="130" height="40" as="geometry"/>
                </mxCell>
                <mxCell id="114" value="mobXBoss: [Embedded Objects]" style="text;strokeColor=#A50040;fillColor=#6A97CC;align=left;verticalAlign=middle;spacingLeft=4;spacingRight=4;overflow=hidden;points=[[0,0.5],[1,0.5]];portConstraint=eastwest;rotatable=0;whiteSpace=wrap;html=1;fontColor=#ffffff;" vertex="1" parent="93">
                    <mxGeometry y="440" width="130" height="40" as="geometry"/>
                </mxCell>
                <mxCell id="154" style="edgeStyle=none;html=1;entryX=0.5;entryY=1;entryDx=0;entryDy=0;entryPerimeter=0;startArrow=baseDash;startFill=0;endArrow=baseDash;endFill=0;startSize=15;endSize=5;sourcePerimeterSpacing=3;targetPerimeterSpacing=0;fillColor=#e3c800;strokeColor=#B09500;" edge="1" parent="1" source="116" target="114">
                    <mxGeometry relative="1" as="geometry"/>
                </mxCell>
                <mxCell id="116" value="Embedded Boss Mobs" style="swimlane;fontStyle=0;childLayout=stackLayout;horizontal=1;startSize=30;horizontalStack=0;resizeParent=1;resizeParentMax=0;resizeLast=0;collapsible=1;marginBottom=0;whiteSpace=wrap;html=1;fillColor=#e3c800;fontColor=#000000;strokeColor=#B09500;" vertex="1" parent="1">
                    <mxGeometry x="690" y="840" width="130" height="140" as="geometry"/>
                </mxCell>
                <mxCell id="117" value="isMobXABoss:&lt;br&gt;Boolean" style="text;strokeColor=#2D7600;fillColor=#B266FF;align=left;verticalAlign=middle;spacingLeft=4;spacingRight=4;overflow=hidden;points=[[0,0.5],[1,0.5]];portConstraint=eastwest;rotatable=0;whiteSpace=wrap;html=1;fontColor=#ffffff;" vertex="1" parent="116">
                    <mxGeometry y="30" width="130" height="30" as="geometry"/>
                </mxCell>
                <mxCell id="127" value="mobXDimesion:&lt;br&gt;`String`" style="text;strokeColor=#314354;fillColor=#3C5573;align=left;verticalAlign=middle;spacingLeft=4;spacingRight=4;overflow=hidden;points=[[0,0.5],[1,0.5]];portConstraint=eastwest;rotatable=0;whiteSpace=wrap;html=1;fontColor=#ffffff;" vertex="1" parent="116">
                    <mxGeometry y="60" width="130" height="30" as="geometry"/>
                </mxCell>
                <mxCell id="128" value="dimesionLocated:&lt;br&gt;[Object._ID] &amp;lt;- Will be a `String though`" style="text;strokeColor=#314354;fillColor=#647687;align=left;verticalAlign=middle;spacingLeft=4;spacingRight=4;overflow=hidden;points=[[0,0.5],[1,0.5]];portConstraint=eastwest;rotatable=0;whiteSpace=wrap;html=1;fontColor=#ffffff;" vertex="1" parent="116">
                    <mxGeometry y="90" width="130" height="50" as="geometry"/>
                </mxCell>
                <mxCell id="132" value="" style="endArrow=none;html=1;startSize=15;endSize=15;sourcePerimeterSpacing=10;fillColor=#1ba1e2;strokeColor=#006EAF;" edge="1" parent="1">
                    <mxGeometry width="50" height="50" relative="1" as="geometry">
                        <mxPoint x="280" y="100" as="sourcePoint"/>
                        <mxPoint x="290" y="100" as="targetPoint"/>
                    </mxGeometry>
                </mxCell>
                <mxCell id="158" value="What do the colors mean?" style="swimlane;fontStyle=0;childLayout=stackLayout;horizontal=1;startSize=30;horizontalStack=0;resizeParent=1;resizeParentMax=0;resizeLast=0;collapsible=1;marginBottom=0;whiteSpace=wrap;html=1;" vertex="1" parent="1">
                    <mxGeometry x="250" y="475" width="140" height="270" as="geometry"/>
                </mxCell>
                <mxCell id="159" value="MVP Models" style="text;strokeColor=#006EAF;fillColor=#1ba1e2;align=left;verticalAlign=middle;spacingLeft=4;spacingRight=4;overflow=hidden;points=[[0,0.5],[1,0.5]];portConstraint=eastwest;rotatable=0;whiteSpace=wrap;html=1;fontColor=#ffffff;" vertex="1" parent="158">
                    <mxGeometry y="30" width="140" height="30" as="geometry"/>
                </mxCell>
                <mxCell id="160" value="Stretch Goals Models" style="text;strokeColor=#B09500;fillColor=#e3c800;align=left;verticalAlign=middle;spacingLeft=4;spacingRight=4;overflow=hidden;points=[[0,0.5],[1,0.5]];portConstraint=eastwest;rotatable=0;whiteSpace=wrap;html=1;fontColor=#000000;" vertex="1" parent="158">
                    <mxGeometry y="60" width="140" height="30" as="geometry"/>
                </mxCell>
                <mxCell id="164" value="User Stories" style="text;strokeColor=#432D57;fillColor=#76608a;align=left;verticalAlign=middle;spacingLeft=4;spacingRight=4;overflow=hidden;points=[[0,0.5],[1,0.5]];portConstraint=eastwest;rotatable=0;whiteSpace=wrap;html=1;fontColor=#ffffff;" vertex="1" parent="158">
                    <mxGeometry y="90" width="140" height="30" as="geometry"/>
                </mxCell>
                <mxCell id="169" value="Object IDs" style="text;strokeColor=#314354;fillColor=#647687;align=left;verticalAlign=middle;spacingLeft=4;spacingRight=4;overflow=hidden;points=[[0,0.5],[1,0.5]];portConstraint=eastwest;rotatable=0;whiteSpace=wrap;html=1;fontColor=#ffffff;" vertex="1" parent="158">
                    <mxGeometry y="120" width="140" height="30" as="geometry"/>
                </mxCell>
                <mxCell id="170" value="Number" style="text;strokeColor=#3A5431;fillColor=#6d8764;align=left;verticalAlign=middle;spacingLeft=4;spacingRight=4;overflow=hidden;points=[[0,0.5],[1,0.5]];portConstraint=eastwest;rotatable=0;whiteSpace=wrap;html=1;fontColor=#ffffff;" vertex="1" parent="158">
                    <mxGeometry y="150" width="140" height="30" as="geometry"/>
                </mxCell>
                <mxCell id="171" value="String" style="text;strokeColor=#314354;fillColor=#3C5573;align=left;verticalAlign=middle;spacingLeft=4;spacingRight=4;overflow=hidden;points=[[0,0.5],[1,0.5]];portConstraint=eastwest;rotatable=0;whiteSpace=wrap;html=1;fontColor=#ffffff;" vertex="1" parent="158">
                    <mxGeometry y="180" width="140" height="30" as="geometry"/>
                </mxCell>
                <mxCell id="172" value="Embedded Stuff" style="text;strokeColor=#3700CC;fillColor=#6a97cc;align=left;verticalAlign=middle;spacingLeft=4;spacingRight=4;overflow=hidden;points=[[0,0.5],[1,0.5]];portConstraint=eastwest;rotatable=0;whiteSpace=wrap;html=1;fontColor=#ffffff;" vertex="1" parent="158">
                    <mxGeometry y="210" width="140" height="30" as="geometry"/>
                </mxCell>
                <mxCell id="173" value="Booleans" style="text;strokeColor=#3700CC;fillColor=#B266FF;align=left;verticalAlign=middle;spacingLeft=4;spacingRight=4;overflow=hidden;points=[[0,0.5],[1,0.5]];portConstraint=eastwest;rotatable=0;whiteSpace=wrap;html=1;fontColor=#ffffff;" vertex="1" parent="158">
                    <mxGeometry y="240" width="140" height="30" as="geometry"/>
                </mxCell>
            </root>
        </mxGraphModel>
    </diagram>
</mxfile>